<svg id="loader-small" xmlns="http://www.w3.org/2000/svg" width="23.229" height="24" viewBox="0 0 23.229 24">
  <path id="Tracé_299" data-name="Tracé 299" d="M319.223,3122.763a2.374,2.374,0,0,1,0,3.389,2.425,2.425,0,0,1-3.418,0,2.377,2.377,0,0,1,0-3.389,2.421,2.421,0,0,1,3.418,0Zm3.078-6.893a2.628,2.628,0,0,1,0,3.734,2.681,2.681,0,0,1-3.766,0,2.628,2.628,0,0,1,0-3.734,2.681,2.681,0,0,1,3.766,0Zm-1.883,13.147a2.112,2.112,0,0,1,1.535.63,2.141,2.141,0,0,1,0,3.06,2.194,2.194,0,0,1-3.077,0,2.158,2.158,0,0,1,0-3.06,2.1,2.1,0,0,1,1.542-.63Zm8.832-16.2a2.879,2.879,0,0,1,0,4.08,2.94,2.94,0,0,1-4.114,0,2.882,2.882,0,0,1,0-4.08,2.936,2.936,0,0,1,4.114,0Zm-.688,19.883a1.908,1.908,0,0,1,0,2.714,1.948,1.948,0,0,1-2.737,0,1.908,1.908,0,0,1,0-2.714,1.946,1.946,0,0,1,2.737,0Zm6.6-2.708a1.657,1.657,0,0,1,0,2.37,1.689,1.689,0,0,1-2.389,0,1.657,1.657,0,0,1,0-2.37,1.689,1.689,0,0,1,2.389,0Zm-.34-13.1a1.187,1.187,0,0,1,0,1.695,1.211,1.211,0,0,1-1.71,0,1.19,1.19,0,0,1,0-1.695,1.213,1.213,0,0,1,1.71,0Zm3.078,6.547a1.442,1.442,0,0,1,0,2.04,1.468,1.468,0,0,1-2.057,0,1.44,1.44,0,0,1,0-2.04,1.472,1.472,0,0,1,2.057,0Z" transform="translate(-315.095 -3111.977)" fill="current"/>
</svg>
